<?xml version="1.0" encoding="utf-8"?>
<!-- Generator: Adobe Illustrator 26.0.1, SVG Export Plug-In . SVG Version: 6.00 Build 0)  -->
<svg version="1.1" id="Layer_1" xmlns="http://www.w3.org/2000/svg" xmlns:xlink="http://www.w3.org/1999/xlink" x="0px" y="0px"
	 viewBox="0 0 842 595" style="enable-background:new 0 0 842 595;" xml:space="preserve">
<style type="text/css">
	.st0{fill:#D1D1D1;}
	.st1{fill:#FDCC0C;}
	.st2{fill:#FDCD0E;}
	.st3{fill:#FDCD10;}
	.st4{fill:#FDCC0A;}
	.st5{fill:#FCCD11;}
</style>
<g>
	<g>
		<path class="st0" d="M277.03,323.66c25.02,0,50.04,0.02,75.07-0.02c1.66,0,2.48,0.16,2.46,2.2c-0.01,2.07-1.04,1.98-2.47,1.98
			c-20.1-0.02-40.19-0.02-60.29-0.01c-4.92,0-9.85,0.05-14.77,0.08C277.03,326.48,277.03,325.07,277.03,323.66z"/>
		<path class="st0" d="M542.45,338.21c-2.66-1.35-5.28-2.77-5.98-6c-0.15-0.7-1.23-2.06,0.38-2.24c1.34-0.15,3.12-1.27,4.13,0.66
			c1.63,3.12,3.62,4.15,6.8,3.27c1.42-0.39,2.58-1.18,2.7-2.84c0.13-1.7-1.05-2.31-2.38-2.71c-2.01-0.61-4.08-1.07-6.06-1.77
			c-3.62-1.27-5.47-3.82-5.19-6.88c0.29-3.19,2.71-5.39,6.5-5.99c2.2-0.35,4.35-0.2,6.48,0.44c1.47,0.44,2.73,1.23,3.55,2.53
			c0.76,1.21,1.89,2.58,0.9,3.96c-0.37,0.52-1.93,0.11-2.92,0.28c-1.41,0.25-1.59-0.77-2.09-1.65c-1.16-2.03-5.86-2.4-7.28-0.56
			c-1.15,1.49-0.29,2.56,1.14,3.07c2.2,0.78,4.49,1.3,6.71,2.01c2.4,0.76,4.41,2.05,5.22,4.61c1.25,3.96-0.72,7.81-4.64,9.22
			c-0.47,0.17-1.16-0.11-1.4,0.6C546.83,338.21,544.64,338.21,542.45,338.21z"/>
		<path class="st1" d="M675.51,261.52c0,13.09-0.05,25.91,0.05,38.73c0.02,2.1-0.47,2.84-2.69,2.74c-4.01-0.19-4.02-0.05-4.02-4.15
			c0-15.64,0.05-31.28-0.05-46.92c-0.01-2.12,0.63-2.41,2.6-2.6c3.49-0.34,5.42,0.95,7.28,3.9c7.51,11.89,15.34,23.59,23.05,35.36
			c0.45,0.69,0.95,1.36,1.83,2.62c0-1.38,0-2.12,0-2.86c0-12.12,0.05-24.24-0.05-36.36c-0.02-2.01,0.39-2.7,2.54-2.61
			c4.13,0.18,4.14,0.04,4.14,4.25c0,15.64-0.03,31.28,0.04,46.92c0.01,1.94-0.54,2.32-2.44,2.51c-3.48,0.33-5.42-0.93-7.29-3.89
			c-7.55-11.96-15.42-23.72-23.18-35.55C676.86,262.91,676.6,262.05,675.51,261.52z"/>
		<path class="st1" d="M289.82,261.51c0,13.09-0.05,25.91,0.05,38.74c0.01,2.09-0.44,2.85-2.68,2.74c-4.01-0.19-4.02-0.05-4.02-4.14
			c0-15.72,0.03-31.44-0.04-47.15c-0.01-1.88,0.59-2.16,2.34-2.37c3.66-0.43,5.69,1,7.64,4.08c7.55,11.96,15.43,23.72,23.19,35.55
			c0.37,0.56,0.79,1.09,1.58,2.17c0-1.33,0-2.07,0-2.81c0-12.12,0.05-24.24-0.05-36.36c-0.02-2.02,0.41-2.7,2.55-2.61
			c4.13,0.18,4.14,0.04,4.14,4.25c0,15.64-0.03,31.28,0.04,46.92c0.01,1.94-0.54,2.32-2.45,2.5c-3.47,0.33-5.42-0.91-7.3-3.88
			c-7.55-11.96-15.42-23.73-23.18-35.55C291.17,262.91,290.91,262.05,289.82,261.51z"/>
		<path class="st2" d="M642.57,276.26c-0.08,8.44-2.18,16.16-8.87,21.83c-12.28,10.41-35.48,7.49-40.39-14.12
			c-2.12-9.31-1.16-18.47,4.81-26.34c6.23-8.22,14.95-10.49,24.71-8.63c10.1,1.92,16.03,8.51,18.69,18.21
			C642.33,270.15,642.7,273.18,642.57,276.26z M599.69,276.54c-0.06,2.19,0.1,4.36,0.53,6.52c1.7,8.56,8.34,14.4,16.76,14.71
			c8.13,0.3,15.04-4.8,17.34-13.01c1.73-6.16,1.65-12.37-0.45-18.45c-2.73-7.9-9.21-12.11-17.73-11.68
			c-7.55,0.38-13.6,5.58-15.53,13.32C599.91,270.78,599.64,273.64,599.69,276.54z"/>
		<path class="st2" d="M334.82,276.03c0-8.13,0.05-16.26-0.04-24.39c-0.02-1.68,0.32-2.28,2.16-2.27
			c11.27,0.09,22.54,0.08,33.81,0.01c1.66-0.01,2.11,0.49,2.09,2.12c-0.05,4.17,0.02,4.18-4.2,4.18c-8.22,0-16.43,0.05-24.65-0.04
			c-1.77-0.02-2.26,0.47-2.21,2.22c0.13,4.14,0.11,8.29,0.01,12.43c-0.04,1.49,0.46,1.82,1.86,1.81c8.29-0.06,16.59,0.02,24.88-0.07
			c1.81-0.02,2.42,0.41,2.36,2.31c-0.12,4.07-0.02,4.08-4.14,4.08c-7.59,0-15.18,0.06-22.77-0.04c-1.78-0.02-2.26,0.5-2.21,2.24
			c0.12,4.53,0.12,9.07,0,13.6c-0.05,1.78,0.37,2.39,2.29,2.37c9.15-0.11,18.31,0.01,27.47-0.1c2.02-0.02,2.49,0.62,2.43,2.51
			c-0.12,3.95-0.02,3.96-3.99,3.96c-10.96,0-21.91-0.04-32.87,0.04c-1.85,0.01-2.36-0.48-2.34-2.33
			C334.88,292.44,334.82,284.23,334.82,276.03z"/>
		<path class="st2" d="M499.24,248.52c4-0.1,7.74,0.61,11.22,2.41c4.91,2.55,7.47,6.68,8.14,12.11c0.14,1.15-0.15,1.53-1.31,1.55
			c-1.56,0.02-3.27,0.67-4.63,0.21c-1.42-0.47-0.98-2.54-1.58-3.83c-1.14-2.48-2.87-4.32-5.42-5.21c-4.35-1.52-8.77-1.42-13.13,0.01
			c-0.94,0.31-1.84,0.89-2.61,1.53c-4.11,3.42-3.33,9.29,1.53,11.45c4.24,1.89,8.85,2.56,13.29,3.77c2.34,0.64,4.68,1.27,6.88,2.31
			c5.03,2.4,8.31,6.16,8.65,11.87c0.35,5.86-2.11,10.47-6.97,13.74c-2.91,1.97-6.21,2.91-9.68,3.25c-4.74,0.46-9.41,0.05-13.85-1.68
			c-6.49-2.52-9.99-7.47-11.13-14.24c-0.27-1.61,0.18-2.37,1.87-2.23c0.15,0.01,0.31-0.04,0.46-0.06c3.74-0.5,3.75-0.5,4.81,2.97
			c0.91,2.98,2.66,5.3,5.47,6.72c5.71,2.9,11.57,3.15,17.42,0.54c3.1-1.38,4.85-3.89,4.87-7.39c0.02-3.5-1.94-5.64-4.97-6.99
			c-3.95-1.76-8.22-2.47-12.36-3.61c-2.71-0.75-5.44-1.45-7.97-2.73c-4.88-2.47-7.79-6.32-7.7-11.89c0.1-5.63,2.8-9.83,7.88-12.37
			C491.85,249.01,495.52,248.35,499.24,248.52z"/>
		<path class="st3" d="M429.62,268.11c0-5.63,0.04-11.26-0.03-16.89c-0.02-1.39,0.3-1.89,1.81-1.91c5.2-0.07,5.2-0.14,5.2,5.1
			c0,8.52-0.02,17.05,0.01,25.57c0.01,2.5-0.01,5,0.46,7.48c1.15,6.07,4.61,9.28,10.78,9.86c2.51,0.24,5.01,0.06,7.46-0.54
			c5.06-1.23,7.59-4.66,8.24-10.91c0.63-6.01,0.31-12.03,0.36-18.05c0.05-5.55,0.06-11.11-0.02-16.66
			c-0.02-1.45,0.41-1.85,1.85-1.86c5.16-0.06,5.2-0.12,5.15,4.91c-0.11,10.16,0.21,20.33-0.21,30.49
			c-0.6,14.66-10.08,19.66-22.24,19.1c-1.55-0.07-3.12-0.3-4.64-0.64c-8.03-1.75-12.38-6.53-13.65-14.68
			c-0.53-3.42-0.5-6.85-0.52-10.29C429.6,274.83,429.62,271.47,429.62,268.11z"/>
		<path class="st1" d="M547.16,276.03c0-8.13,0.04-16.26-0.04-24.38c-0.02-1.66,0.29-2.31,2.15-2.28c7.66,0.15,15.34-0.03,23,0.2
			c8.17,0.25,13.66,4.77,14.68,12.16c1.31,9.47-2.75,18.45-15.22,19.17c-5.15,0.3-10.32,0.19-15.49,0.14
			c-1.61-0.02-2.15,0.4-2.12,2.08c0.1,5.86-0.02,11.72,0.08,17.58c0.03,1.68-0.32,2.31-2.16,2.28c-4.88-0.09-4.88,0.01-4.88-4.91
			C547.16,290.73,547.16,283.38,547.16,276.03z M554.16,265.23c0,2.5,0.08,5-0.03,7.49c-0.07,1.55,0.27,2.21,2.01,2.15
			c4.14-0.13,8.28-0.02,12.42-0.06c2.2-0.02,4.36-0.33,6.4-1.19c3.73-1.58,5.62-5.42,5.01-10.1c-0.53-4.07-3.23-7-7.17-7.51
			c-5.75-0.75-11.55-0.16-17.32-0.36c-1.28-0.04-1.34,0.67-1.33,1.62C554.18,259.92,554.16,262.58,554.16,265.23z"/>
		<path class="st2" d="M423.38,249.42c-4,5.49-7.68,10.53-11.35,15.56c-1.98,2.72-3.9,5.48-5.97,8.12c-0.9,1.14-0.81,1.9,0,3.04
			c5.75,8.09,11.42,16.23,17.11,24.36c0.47,0.68,0.91,1.38,1.59,2.43c-2.83,0-5.22-0.03-7.61,0.01c-1.22,0.03-1.53-0.95-2.04-1.68
			c-4.77-6.86-9.51-13.75-14.32-20.71c-3.05,4.35-6.08,8.67-9.11,12.98c-1.71,2.43-3.53,4.79-5.09,7.31
			c-1.04,1.69-2.29,2.31-4.23,2.12c-1.68-0.17-3.39-0.03-5.12-0.03c-0.04-1.18,0.71-1.72,1.18-2.38
			c5.77-7.98,11.54-15.96,17.4-23.87c0.98-1.32,0.92-2.15,0-3.44c-5.07-7.13-10.05-14.33-15.05-21.52c-0.43-0.62-0.84-1.27-1.51-2.3
			c2.73,0,5.1,0,7.48,0c1.08,0,1.36,0.96,1.83,1.62c4.19,6.02,8.34,12.06,12.56,18.17c4.18-5.66,8.43-11.21,12.44-16.94
			c1.5-2.14,3.08-3.3,5.74-2.9C420.47,249.56,421.66,249.42,423.38,249.42z"/>
		<path class="st1" d="M740.69,279.41c0,7.19-0.04,14.38,0.03,21.57c0.02,1.53-0.4,1.99-1.96,1.99c-5.08,0.01-5.08,0.07-5.08-4.96
			c0-13.29-0.06-26.58,0.06-39.86c0.02-2.15-0.61-2.6-2.62-2.53c-4.3,0.15-8.61-0.01-12.91,0.08c-1.46,0.03-1.84-0.47-1.85-1.88
			c-0.04-4.41-0.1-4.41,4.24-4.41c11.66,0,23.32,0.04,34.98-0.04c1.86-0.01,2.61,0.31,2.52,2.38c-0.16,3.91-0.03,3.91-3.98,3.91
			c-3.83,0-7.67,0.07-11.5-0.03c-1.54-0.04-1.98,0.43-1.96,1.97C740.73,264.87,740.69,272.14,740.69,279.41z"/>
		<path class="st4" d="M651.31,276.04c0-8.21,0.03-16.42-0.03-24.63c-0.01-1.48,0.35-2.02,1.94-2.03c4.94-0.02,4.94-0.09,4.94,4.87
			c0,15.32-0.04,30.65,0.04,45.97c0.01,2.07-0.41,2.86-2.67,2.76c-4.21-0.19-4.22-0.05-4.22-4.2
			C651.31,291.2,651.31,283.62,651.31,276.04z"/>
		<path class="st0" d="M717.87,327.42c-12.21,0-24.43-0.03-36.64,0.03c-1.6,0.01-2.33-0.17-2.31-2.08c0.01-1.91,0.74-2.1,2.35-2.1
			c24.43,0.04,48.85,0.05,73.28,0c1.66,0,2.26,0.28,2.3,2.13c0.04,1.97-0.78,2.06-2.33,2.05
			C742.3,327.4,730.08,327.42,717.87,327.42z"/>
		<path class="st0" d="M401.23,337.77c-1.64,0-2.88-0.08-4.1,0.02c-1.24,0.11-2.01-0.33-2.67-1.4c-1.27-2.06-2.67-4.04-4.07-6.02
			c-0.49-0.69-1.06-1.38-1.74-1.88c-1.07-0.8-2.47-0.94-3.59-0.5c-0.96,0.38-0.4,1.66-0.43,2.53c-0.07,1.95-0.06,3.91-0.01,5.86
			c0.06,2.38-1.73,1.16-2.69,1.32c-0.95,0.16-2.18,0.5-2.16-1.4c0.09-6.96,0.05-13.91,0.02-20.87c0-1.02,0.18-1.61,1.4-1.56
			c3.98,0.15,7.98-0.25,11.96,0.25c3.68,0.46,5.68,2.31,6.04,5.44c0.42,3.75-1.04,6.06-4.65,7.38c-0.27,0.1-0.65,0.03-0.79,0.61
			C397.04,330.17,398.71,334.04,401.23,337.77z M388.63,318.05c-4.07-0.06-4.07-0.06-4.03,3.93c0,0.31,0.02,0.62,0,0.93
			c-0.04,0.74,0.2,1.18,1.04,1.15c2.1-0.07,4.21,0.14,6.3-0.25c1.69-0.31,2.39-1.45,2.35-3c-0.04-1.61-1-2.6-2.63-2.75
			C390.66,317.97,389.64,318.05,388.63,318.05z"/>
		<path class="st0" d="M409.81,325.72c0-3.36,0.04-6.72-0.02-10.07c-0.02-1.23,0.23-1.81,1.66-1.78c4.77,0.09,9.54,0.13,14.3-0.02
			c1.94-0.06,1.68,1.02,1.72,2.21c0.04,1.2,0.05,2.08-1.66,1.99c-3.12-0.15-6.25,0.04-9.38-0.08c-1.45-0.05-2.02,0.36-1.8,1.82
			c0.09,0.61,0.08,1.25,0,1.87c-0.15,1.22,0.29,1.63,1.55,1.59c2.65-0.09,5.32,0.03,7.97-0.05c1.58-0.05,2.54,0.03,2.51,2.14
			c-0.02,2-0.91,2.07-2.41,2.02c-2.66-0.08-5.32,0.05-7.97-0.05c-1.38-0.06-1.66,0.45-1.68,1.73c-0.06,4.7-0.11,4.7,4.56,4.7
			c2.42,0,4.85,0.08,7.27-0.03c1.88-0.08,1.4,1.18,1.46,2.19c0.06,1.06,0.14,1.93-1.48,1.9c-5-0.1-10.01-0.09-15.01,0
			c-1.44,0.03-1.66-0.54-1.63-1.77C409.85,332.59,409.81,329.16,409.81,325.72z"/>
		<path class="st0" d="M643.14,325.69c0-3.36,0.05-6.72-0.02-10.07c-0.03-1.3,0.36-1.77,1.72-1.75c4.77,0.07,9.54,0.13,14.3-0.02
			c1.91-0.06,1.68,0.97,1.74,2.18c0.08,1.38-0.13,2.13-1.84,2.04c-3.04-0.15-6.1,0.03-9.14-0.07c-1.4-0.05-2.07,0.28-1.84,1.79
			c0.08,0.53,0.08,1.1,0,1.64c-0.19,1.4,0.28,1.92,1.78,1.85c2.81-0.12,5.63,0.07,8.44-0.08c1.66-0.09,1.77,0.71,1.68,1.96
			c-0.08,1.13,0.35,2.37-1.66,2.25c-2.88-0.17-5.78,0.01-8.67-0.07c-1.24-0.04-1.56,0.37-1.59,1.59c-0.12,4.83-0.17,4.82,4.68,4.82
			c2.35,0,4.7,0.1,7.03-0.03c1.77-0.1,1.59,0.96,1.58,2.08c-0.01,1.1,0.21,2.08-1.58,2.04c-4.92-0.13-9.85-0.09-14.77-0.02
			c-1.4,0.02-1.92-0.32-1.88-1.81C643.22,332.56,643.14,329.12,643.14,325.69z"/>
		<path class="st0" d="M509.04,325.74c0-3.36,0.04-6.72-0.02-10.08c-0.02-1.22,0.18-1.83,1.64-1.8c4.85,0.09,9.7,0.1,14.54,0
			c1.82-0.04,1.5,1.08,1.54,2.14c0.05,1.16,0.1,2.11-1.63,2.04c-3.12-0.13-6.26,0.04-9.38-0.07c-1.53-0.06-1.99,0.39-1.95,1.94
			c0.08,3.31-0.01,3.31,3.36,3.31c2.42,0,4.85,0.08,7.27-0.03c1.65-0.07,1.49,0.95,1.45,1.97c-0.04,1.02,0.4,2.26-1.47,2.2
			c-2.97-0.1-5.94,0.04-8.91-0.05c-1.37-0.04-1.67,0.44-1.68,1.73c-0.06,4.7-0.11,4.69,4.59,4.69c2.42,0,4.85,0.09,7.27-0.03
			c1.84-0.09,1.47,1.12,1.51,2.17c0.04,1.06,0.14,1.95-1.48,1.92c-5.08-0.1-10.16-0.07-15.25-0.01c-1.19,0.01-1.42-0.45-1.41-1.51
			C509.08,332.77,509.04,329.26,509.04,325.74z"/>
		<path class="st0" d="M586.87,337.77c3.05-7.85,5.98-15.31,8.84-22.79c0.46-1.2,1.35-1.22,2.25-1.05c1.25,0.25,2.93-0.92,3.7,0.99
			c2.91,7.22,5.79,14.46,8.69,21.68c0.14,0.35,0.37,0.71,0.02,1.04c-0.82,0.77-5.12-0.09-5.29-1.17c-0.6-3.8-2.95-4.66-6.31-4.08
			c-0.3,0.05-0.62,0.01-0.94,0.01c-3.82,0-3.87-0.02-5.12,3.6c-0.44,1.27-0.99,1.98-2.45,1.78
			C589.24,337.66,588.22,337.77,586.87,337.77z M595.48,328.26c2.21,0,4.15,0,6.39,0c-1.08-2.86-2.08-5.54-3.25-8.65
			C597.48,322.75,596.53,325.38,595.48,328.26z"/>
		<path class="st0" d="M459.5,337.77c-1.22,0-2.15-0.1-3.05,0.02c-1.65,0.22-2.67-0.33-2.97-2.02c-0.5-2.78-2.12-3.91-4.91-3.36
			c-0.38,0.07-0.78,0.01-1.17,0.01c-4.52,0-4.56-0.02-6.19,4.08c-0.38,0.95-0.82,1.37-1.85,1.3c-1.15-0.08-2.31-0.02-3.79-0.02
			c1.97-5.04,3.83-9.8,5.69-14.58c1.04-2.69,2.1-5.37,3.1-8.07c0.35-0.94,0.91-1.44,1.91-1.21c1.34,0.31,3.24-0.96,4,0.88
			C453.4,322.32,456.37,329.92,459.5,337.77z M447.34,319.57c-1.16,3.2-2.12,5.87-3.17,8.77c1.86,0,3.47-0.04,5.07,0.01
			c1.17,0.04,1.28-0.39,0.89-1.37C449.22,324.7,448.39,322.38,447.34,319.57z"/>
		<path class="st0" d="M570.73,327.74c0-2.58-0.11-5.16,0.04-7.73c0.1-1.72-0.52-2.21-2.11-2.01c-0.85,0.11-1.72,0.02-2.58,0.02
			c-2.34-0.01-3.02-1-2.43-3.32c0.23-0.89,0.81-0.81,1.42-0.81c5.4-0.01,10.8,0.05,16.19-0.03c1.86-0.03,1.44,1.18,1.47,2.2
			c0.03,1.01,0.23,2.17-1.43,1.96c-0.08-0.01-0.16-0.01-0.23,0c-1.76,0.17-4.17-0.83-5.12,0.46c-0.87,1.18-0.26,3.46-0.26,5.25
			c-0.01,4.14-0.1,8.29,0.03,12.42c0.07,2.22-1.41,1.6-2.51,1.59c-1.08-0.01-2.63,0.68-2.52-1.57
			C570.83,333.37,570.73,330.55,570.73,327.74z"/>
		<path class="st0" d="M622.25,327.81c0-2.74-0.06-5.48,0.02-8.21c0.04-1.21-0.29-1.73-1.56-1.61c-1.01,0.09-2.06-0.13-3.05,0.05
			c-2.44,0.43-2.65-0.91-2.51-2.79c0.07-0.98,0.34-1.37,1.37-1.36c5.4,0.04,10.8,0.06,16.2-0.01c1.96-0.02,1.25,1.34,1.35,2.27
			c0.12,1.07,0.12,1.91-1.48,1.91c-1.82,0-4.33-0.96-5.31,0.46c-0.89,1.27-0.24,3.62-0.25,5.49c-0.01,4.07-0.1,8.14,0.04,12.2
			c0.07,2.06-1.25,1.6-2.29,1.52c-1.01-0.08-2.67,0.85-2.57-1.48C622.34,333.44,622.25,330.63,622.25,327.81z"/>
		<path class="st0" d="M472.96,323.93c0,2.5,0.1,5-0.03,7.48c-0.1,1.77,0.34,2.5,2.28,2.38c2.72-0.17,5.47,0.04,8.19-0.07
			c1.72-0.07,1.61,0.92,1.63,2.08c0.02,1.2,0.03,2.05-1.66,2c-4.52-0.12-9.06-0.1-13.58-0.01c-1.43,0.03-1.63-0.54-1.62-1.77
			c0.05-6.71,0.12-13.41-0.03-20.12c-0.05-2.35,1.41-1.65,2.59-1.74c1.31-0.11,2.42-0.18,2.28,1.81
			C472.82,318.62,472.96,321.28,472.96,323.93z"/>
	</g>
	<g>
		<path class="st1" d="M150.64,285.27c0-16.79,0.01-33.1-0.02-49.41c0-1.17,0.38-1.5,1.53-1.5c18.99,0.04,37.99-0.28,56.98,0.13
			c22.02,0.47,40.63,18.24,42.69,40.05c2.26,23.87-13.29,44.48-36.94,48.93c-2.35,0.44-4.73,0.62-7.13,0.62
			c-12.64-0.02-25.28-0.04-37.92,0.04c-1.68,0.01-2.11-0.52-2.01-2.08c0.12-1.83,0.14-3.69,0-5.52c-0.13-1.66,0.75-1.7,1.99-1.7
			c8.33,0.03,16.67,0.08,25-0.01c5.93-0.06,11.89,0.45,17.79-0.57c16.42-2.83,29.11-17.6,29.32-34.14
			c0.23-17.56-11.67-32.63-28.39-35.95c-2.55-0.51-5.12-0.8-7.72-0.8c-14.62,0.01-29.24,0.04-43.86-0.04
			c-1.81-0.01-2.08,0.58-2.07,2.19c0.07,10.71,0.02,21.43,0.06,32.14c0.01,1.22-0.31,1.99-1.4,2.64
			C155.99,281.8,153.51,283.45,150.64,285.27z"/>
		<path class="st2" d="M74.16,249.29c0,0.79,0,1.58,0,2.37c0,32.07-0.02,64.15,0.05,96.22c0,1.98-0.47,2.61-2.47,2.46
			c-2.45-0.18-4.92-0.09-7.37-0.02c-1.17,0.03-1.57-0.35-1.52-1.52c0.08-1.91,0.02-3.82,0.02-5.73c0-35.35,0-70.7,0.01-106.04
			c0-3.08-0.38-2.65,2.76-2.67c3.42-0.02,6.83,0.03,10.25-0.03c1.06-0.02,1.73,0.27,2.37,1.17c15.21,21.42,30.43,42.82,45.72,64.19
			c0.95,1.33,0.7,1.89-0.55,2.65c-1.98,1.21-3.93,2.48-5.77,3.89c-1.28,0.99-1.92,0.76-2.82-0.51
			c-9.8-13.87-19.67-27.71-29.51-41.55c-3.56-5-7.12-10-10.68-14.99C74.48,249.21,74.32,249.25,74.16,249.29z"/>
		<path class="st0" d="M150.55,302.14c-10.92,7.23-21.85,14.46-32.77,21.69c-4.61,3.05-9.18,6.16-13.83,9.15
			c-1.13,0.73-1.49,1.5-1.47,2.8c0.08,4.91-0.03,9.83,0.07,14.74c0.03,1.47-0.42,1.85-1.83,1.78c-2.25-0.12-4.51-0.07-6.76-0.01
			c-0.99,0.03-1.29-0.3-1.27-1.28c0.06-2.87,0-5.73,0.07-8.6c0.03-1.06-0.21-1.53-1.38-1.71c-3.6-0.57-7.17-1.3-11.12-2.04
			c1.76-1.21,3.21-2.21,4.66-3.2c38.23-26.06,76.47-52.1,114.67-78.2c1.33-0.91,2.13-1,3.48,0.07
			c11.63,9.29,23.33,18.49,35.05,27.65c1.12,0.88,1.36,1.53,0.75,2.82c-1.02,2.15-1.82,4.39-2.77,6.75
			c-0.69-0.5-1.29-0.92-1.87-1.36c-10.43-7.94-20.87-15.86-31.27-23.83c-1.11-0.85-1.87-1.02-3.14-0.16
			c-12.63,8.49-25.32,16.89-37.98,25.32c-0.56,0.37-1.09,0.81-1.63,1.22C156.87,297.71,153.7,299.92,150.55,302.14z"/>
		<path class="st5" d="M150.55,302.14c3.16-2.23,6.32-4.44,9.67-6.38c0.02,18.27,0.03,36.54,0.08,54.81c0,1.19-0.42,1.54-1.54,1.51
			c-2.05-0.06-4.1-0.13-6.14,0.02c-1.71,0.13-2.01-0.57-2.01-2.11c0.05-15.13,0.03-30.27,0.03-45.41
			C150.63,303.77,150.58,302.96,150.55,302.14z"/>
		<path class="st0" d="M194.1,304.23c-5.29,0-5.29,0-5.29-5.27c0-3.07,0-3.07,3-3.07c2.05,0,4.1,0.06,6.14-0.02
			c1.19-0.05,1.55,0.37,1.49,1.51c-0.08,1.77-0.1,3.55,0.01,5.32c0.08,1.33-0.46,1.64-1.66,1.56
			C196.56,304.16,195.33,304.23,194.1,304.23z"/>
		<path class="st0" d="M206.55,295.9c1.42,0.21,3.74-0.8,4.75,0.42c0.85,1.03,0.25,3.25,0.29,4.94c0.01,0.54-0.03,1.09,0.01,1.63
			c0.07,0.9-0.17,1.38-1.22,1.36c-2.72-0.05-5.44-0.05-8.16,0c-0.98,0.02-1.31-0.32-1.28-1.29c0.06-1.9,0.07-3.81,0-5.71
			c-0.05-1.11,0.4-1.41,1.43-1.36C203.65,295.95,204.94,295.9,206.55,295.9z"/>
		<path class="st0" d="M206.25,293.38c-1.69-0.08-3.88,0.46-4.93-0.4c-1.12-0.92-0.31-3.19-0.34-4.87
			c-0.06-3.06-0.01-2.91,3.12-3.09c5-0.28,7.64,3.58,7.51,7.01c-0.04,0.96-0.26,1.34-1.26,1.29c-1.36-0.07-2.73-0.02-4.09-0.02
			C206.25,293.33,206.25,293.35,206.25,293.38z"/>
		<path class="st0" d="M194.13,293.31c-1.02,0-2.07-0.12-3.07,0.02c-1.99,0.28-2.47-0.53-2.19-2.38c0.52-3.54,3.01-5.8,6.7-5.88
			c3.82-0.09,3.82-0.09,3.82,3.61c0,4.63,0,4.63-4.65,4.63C194.54,293.31,194.33,293.31,194.13,293.31z"/>
		<path class="st0" d="M126.51,344.17c-3.63,0-3.56,0-3.62-3.62c-0.02-1.39,0.31-2.02,1.78-1.8c0.53,0.08,1.09,0.01,1.63,0.01
			c3.81,0,3.75,0,3.81,3.61c0.03,1.38-0.28,2.03-1.76,1.81C127.74,344.09,127.12,344.17,126.51,344.17z"/>
		<path class="st0" d="M134.92,344.17c-4.06,0-4.03,0-3.76-4.27c0.06-0.88,0.3-1.18,1.18-1.15c1.56,0.06,3.12,0.06,4.68,0
			c0.92-0.03,1.44,0.19,1.3,1.22c-0.04,0.27,0,0.54,0,0.81C138.34,344.17,138.34,344.17,134.92,344.17z"/>
		<path class="st0" d="M126.42,337.06c-0.34,0-0.69,0.06-1.02-0.01c-0.81-0.16-1.96,0.55-2.36-0.46c-0.35-0.88,0.22-1.86,0.81-2.63
			c0.41-0.53,0.88-1.05,1.43-1.42c1.4-0.96,3.42-1.73,4.5-0.68c1,0.96,0.29,3.1,0.25,4.72c-0.01,0.57-0.57,0.47-0.96,0.48
			C128.19,337.07,127.3,337.06,126.42,337.06z"/>
		<path class="st0" d="M134.89,337.06c-3.77,0-4.52-0.98-3.72-4.73c0.12-0.58,0.37-0.74,0.92-0.81c2.29-0.32,4.82,1.09,5.8,3.29
			c0.84,1.89,0.62,2.24-1.37,2.25C135.98,337.06,135.43,337.06,134.89,337.06z"/>
	</g>
</g>
</svg>
